<svg xmlns="http://www.w3.org/2000/svg" xml:space="preserve" version="1.0" viewBox="0 0 5.98 4.05"><path fill="#A32125" d="M0.88 2.16l-0.31 -2.12 -0.57 0 0 4.01 0.47 0 0 -2.19 0.29 2.19 0.23 0 0.31 -2.19 0 2.19 0.47 0 0 -4.01 -0.58 0 -0.31 2.12zm4.83 -2.12l-0.78 0 -0.26 4.01 0.47 0 0.05 -0.89 0.28 0 0.04 0.89 0.47 0 -0.27 -4.01zm-0.5 2.71l0.12 -2.33 0.11 2.33 -0.23 0zm-2.05 -0.85l-0.06 -0.02c0.11,-0.05 0.2,-0.08 0.24,-0.2 0.02,-0.07 0.02,-0.15 0.02,-0.26l0 -1.04c0,-0.52 -1.24,-0.5 -1.24,0.04l0 0.91 0.51 0 0 -0.82c0,-0.15 0.21,-0.15 0.21,0l0 0.98c0,0.1 -0.11,0.17 -0.21,0.17l-0.09 0 0 0.35 0.09 0c0.14,0 0.21,0.06 0.21,0.15l0 1.38c0,0.15 -0.21,0.15 -0.21,0l0 -1.14 -0.51 0 0 1.24c0,0.53 1.25,0.56 1.25,0.03l0 -1.37c0,-0.15 0.01,-0.35 -0.21,-0.4l0 0zm0.42 -1.48l0.24 0 0 3.63 0.51 0 0 -3.63 0.23 0 0 -0.38 -0.98 0 0 0.38z"></path></svg>